<svg width="428" height="383" viewBox="0 0 428 383" fill="none" xmlns="http://www.w3.org/2000/svg">
<path d="M424.574 254.906C421.805 251.811 421.746 249.214 422.532 245.828C424.584 236.983 427.761 228.147 424.753 219.011C421.935 210.448 425.201 201.321 420.79 192.833C408.262 168.72 390.077 149.429 358.758 141.015C354.545 139.887 350.303 138.526 345.961 138.086C286.16 132.046 255.348 150.939 228.579 187.058C226.757 189.514 225.363 192.31 225.592 195.231C226.299 203.968 222.285 211.734 218.79 219.617C216.051 225.798 216.36 231.681 220.513 237.39C222.564 240.203 224.227 243.215 226.408 245.945C228.948 249.123 229.436 251.471 225.333 254.375C219.636 258.416 219.208 263.859 221.658 269.617C224.177 275.533 229.695 278.238 236.556 279.334C239.693 279.831 241.296 278.869 239.633 275.824C238.139 273.102 237.213 270.165 236.038 267.327C253.794 302.849 288.978 314.747 331.69 316.738C317.121 318.572 294.774 315.884 280.015 310.449C274.488 308.416 271.481 309.37 268.732 313.668C262.916 322.762 257.091 331.798 255.059 342.137C254.462 345.149 252.44 346.543 248.626 347.057C240.838 348.103 240.31 343.531 239.155 339.299C232.015 313.229 222.086 287.797 213.442 262.067C212.297 258.656 210.524 255.155 205.704 254.483C192.499 252.649 180.171 248.143 167.125 245.903C163.141 245.223 161.717 243.655 161.837 240.452C161.946 237.597 161.05 234.585 165.88 233.615C174.544 231.864 180.569 227.06 185.548 221.235C187.689 218.737 190.428 217.368 193.923 216.555C198.405 215.518 204.828 215.145 206.68 212.597C209.329 208.98 202.697 206.474 200.287 203.453C197.07 199.429 197.986 197.778 203.195 196.591C208.064 195.48 215.155 197.139 217.436 193.497C219.636 189.978 214.906 185.539 213.253 181.532C211.55 177.408 212.685 175.267 217.595 174.238C224.586 172.761 231.049 170.239 237.353 167.368C241.495 165.484 241.525 164.016 237.373 161.941C230.611 158.564 223.132 156.125 217.296 151.553C215.613 150.234 212.277 149.553 212.934 147.114C213.482 145.081 216.559 145.222 218.561 144.666C231.457 141.082 244.065 136.966 255.547 130.784C257.579 129.689 260.725 128.743 260.656 126.71C260.586 124.553 257.21 124.146 255.039 123.375C245.031 119.823 234.953 116.397 224.656 112.829C233.907 103.76 244.523 96.9557 254.053 89.2142C255.716 87.87 258.923 86.7996 258.017 84.5012C257.29 82.6592 254.113 83.1653 252.081 82.8749C241.376 81.3399 230.631 79.9376 219.855 78.7843C214.557 78.2201 213.731 76.8427 216.569 72.9843C223.919 62.9942 230.919 52.8298 237.99 42.6987C238.767 41.5951 240.948 40.5745 239.334 39.0395C237.831 37.6206 236.038 39.0063 234.594 39.4212C223.879 42.541 213.123 45.5945 202.617 49.1624C196.851 51.1206 194.879 49.8677 193.625 44.9971C190.498 32.8081 189.542 20.5279 190.249 8.13979C190.547 2.95389 188.715 2.67177 183.696 5.07803C169.475 11.9068 155.892 19.3331 145.833 30.4018C142.886 33.6462 140.774 33.4221 137.936 30.211C131.652 23.0752 125.299 15.9643 118.457 9.21017C114.972 5.76673 111.745 1.72587 105.929 0C103.231 13.1017 102.593 26.1453 95.9509 38.1683C93.8695 41.9436 92.3359 43.2878 87.4562 40.6326C77.398 35.1812 65.9357 32.5177 54.2942 30.4184C52.6809 30.128 50.5597 29.3813 49.6933 31.0076C49.2651 31.8207 50.2012 33.3391 50.9282 34.3348C57.222 42.9227 59.3033 52.6888 62.6594 62.1313C64.4718 67.2425 62.1315 68.3793 56.9232 68.6282C49.0261 69.0016 41.1389 69.4828 33.2517 70.0139C24.269 70.6196 15.2964 71.3249 5.87556 72.0135C7.89715 75.7308 11.2432 77.5811 14.0217 79.8297C22.3968 86.6005 29.9156 93.8773 35.7513 102.399C38.709 106.705 38.0716 109.087 33.0326 111.858C21.8292 118.015 11.064 124.711 0 131.257C3.05728 134.078 6.51291 133.821 9.56023 134.41C22.2475 136.842 32.9131 141.828 40.9696 150.565C43.5986 153.412 43.1405 155.328 39.8443 157.162C33.3911 160.755 28.3819 165.625 23.2334 170.338C16.2723 176.711 16.3819 176.785 26.4799 179.524C28.8301 180.162 31.2002 180.752 33.4807 181.523C38.938 183.357 46.885 182.892 49.534 186.792C52.402 191.007 47.7713 196.55 46.4866 201.504C43.7182 212.124 43.4891 212.083 56.2759 211.087C71.871 209.867 72.0005 209.859 73.1756 222.289C73.6337 227.068 74.769 228.935 81.252 226.603C87.8247 224.247 87.0081 221.899 83.9408 217.783C69.1723 197.977 63.9042 176.097 64.6212 153.013C64.8104 154.167 64.9897 155.32 65.1988 156.473C67.9673 171.732 70.447 187.058 77.398 201.512C83.9607 215.178 92.1865 227.657 110.789 232.304C114.444 233.216 117.939 234.287 117.641 238.394C117.362 242.319 113.817 243.364 110.241 244.36C96.9168 248.069 83.6421 251.927 70.198 255.321C65.0295 256.623 62.5 259.088 61.0859 263.228C54.8717 281.391 48.5182 299.521 42.0152 317.618C40.9297 320.647 41.6966 322.464 44.4252 324.588C55.8079 333.45 67.9971 341.481 80.4454 349.248C88.6114 354.343 96.4787 356.185 107.533 353.347C143.035 344.245 174.166 354.284 195.367 379.998C196.841 381.79 198.335 383.624 201.203 382.794C203.812 382.039 203.324 379.824 203.324 377.99C203.334 371.186 203.354 364.382 203.324 357.579C203.314 354.641 203.972 352.011 208.304 351.953C218.192 351.812 228.081 351.812 237.97 351.853C240.041 351.862 241.615 352.982 243.019 354.21C248.297 358.84 254.183 363.08 258.754 368.141C266.85 377.119 275.006 384.57 289.735 377.194C289.924 377.094 290.223 377.111 290.462 377.136C296.128 377.592 296.975 374.812 296.775 370.962C296.566 366.847 296.975 362.715 296.775 358.599C296.546 353.903 298.897 351.779 304.623 351.845C314.024 351.953 323.435 351.969 332.826 351.729C338.363 351.588 340.334 353.546 340.155 357.993C339.906 363.968 340.095 369.95 340.105 375.924C340.105 377.434 340.474 378.911 342.475 379.359C344.348 379.774 345.851 378.994 346.907 377.7C349.177 374.904 350.422 372.215 346.26 369.693C340.036 365.926 340.573 360.922 343.282 355.878C345.931 350.941 351.07 346.983 357.224 348.866C366.247 351.629 371.495 347.746 377.42 343.871C379.531 342.486 381.782 341.233 383.993 339.963C394.111 334.163 394.758 332.694 389.838 323.567C387.628 319.46 385.277 315.286 382.101 311.694C378.535 307.669 379.581 305.313 384.082 302.649C390.336 298.94 396.192 294.692 400.574 289.398C405.165 283.839 410.692 279.624 418.031 276.504C428.079 272.248 431.037 262.133 424.574 254.906ZM314.074 244.642C307.073 252.948 291.458 258.142 279.199 255.312C266.123 252.292 256.304 245.837 253.157 234.121C251.195 226.811 253.087 224.877 262.12 224.877C271.56 224.877 280.762 223.6 289.854 221.617C298.289 219.775 306.027 217.227 307.451 208.623C321.054 216.613 323.823 233.059 314.074 244.642ZM118.258 130.627C108.18 129.042 98.0521 128.71 88.223 131.075C81.3914 132.726 79.8279 129.78 79.0213 125.466C76.8902 113.965 88.1035 102.407 102.285 101.387C116.177 100.391 129.133 110.671 129.103 122.678C129.093 130.759 127.43 132.07 118.258 130.627ZM142.328 124.379C141.292 117.06 143.374 112.339 149.14 111.053C151.978 110.422 154.965 110.265 156.738 110.041C167.892 110.356 177.342 112.04 186.016 116.529C190.866 119.043 192.479 122.396 192.021 126.876C191.603 131.017 189.561 132.743 184.283 131.539C173.319 129.042 162.096 128.013 150.703 127.996C147.427 127.996 143.035 129.407 142.328 124.379ZM189.472 333.956C194.491 338.187 200.098 341.921 205.744 345.63C205.127 346.194 204.509 346.759 203.902 347.323C197.05 342.286 190.119 337.316 183.367 332.18C180.818 330.238 182.62 328.446 184.483 326.961C188.924 323.393 193.176 319.601 197.967 316.382C203.643 312.565 203.663 308.358 201.064 303.247C193.246 287.921 180.658 263.676 170.949 251.363C185.468 262.249 199.779 293.896 205.077 304.749C207.437 309.578 206.471 313.527 201.83 316.962C197.767 319.966 194.003 323.277 189.711 326.04C185.359 328.844 185.956 330.993 189.472 333.956ZM363.339 254.499C351.04 253.446 339.05 245.14 335.295 235.075C331.929 226.047 335.694 216.231 345.463 209.452C351.02 221.625 364.285 221.376 375.807 223.45C382.29 224.62 389.022 225.085 395.724 224.579C399.936 224.263 401.241 225.74 401.301 229.192C401.54 244.285 383.744 256.242 363.339 254.499Z" fill="black"/>
</svg>
